# xmcd CD database file
#
# Track frame offsets:
#	150
#	25347
#	48430
#
# Disc length: 981 seconds
#
# Revision: 0
# Processed by: cddbd v1.5PL3 Copyright (c) Steve Scherf et al.
# Submitted via: CDex 1.50beta9
#
DISCID=1e03d303
DTITLE=trf - TK RAVE FACTORY
DYEAR=1900
DGENRE=J-POP
TTITLE0=GOING 2 DANCE
TTITLE1=OPEN YOUR MIND
TTITLE2=GOIN 2 DANCE(ENGLISH VERSION)
EXTD=
EXTT0=
EXTT1=
EXTT2=
PLAYORDER=
